<svg version="1" xmlns="http://www.w3.org/2000/svg" width="553.333" height="553.333" viewBox="0 0 415.000000 415.000000"><path d="M149.2 18.4c0 .6-1.2 4.3-2.6 8.3-2.9 7.8-6.2 25.5-7.2 38.5-.7 8.3-.7 8.3-5.3 12.6-5.2 4.9-19.6 16.1-21.7 16.9-1.9.7-1.9-2.6 0-4.1.8-.6 5.8-4.4 11.1-8.5s10.3-8.4 11-9.5c.7-1.2 1.6-5 1.9-8.6.4-3.6.9-7.6 1.2-9 .2-1.4.1-1.9-.2-1.3-.3.7-1.3 1.3-2.2 1.4-1.1 0-1.2.2-.4.6 1.5.6 1.5 3.3.1 10.7-1.2 5.5-1.4 5.9-10.3 13.2-16.8 13.9-15.9 12.9-15.1 16.6 1.1 5.5 6 15.1 11.4 22.5l5.1 7.1-1.5 10.8c-1.8 13.3-5.1 31.2-7.5 40.8-.6 2.2-4.2 13.5-8 25.1-3.8 11.5-8.3 26.4-10 33-3.3 12.5-6.3 28.5-5.5 29.3.2.3.7-1.4 1.1-3.7.4-2.4 1.2-4.1 2-4.1.9 0 1.1-1 .7-3.4-.3-1.9 0-5.8.7-8.8 2-8.6 9.7-34.4 13.9-46.5l3.9-11.3-.1 17.8c0 13.3.3 19.4 1.6 24.4 1.7 6.7 8.1 21.3 9.9 22.4.5.3-.6-2.5-2.5-6.3-7.6-15-9.5-27.6-7.7-49.3 1-12.4 3.4-30.2 4.5-33.2.6-1.9 4.2-23.3 5-30.1.6-5.4.8-5.7 3.1-5.1 3.5.9 5.1-1 5.9-7.1 2.2-18.3 11-36.1 23.4-47.7 11.7-11 25.4-17.4 42.1-19.9l8.4-1.2-3-2.3c-6-4.9-27.8-18.8-41.4-26.5-8.9-5.1-15.6-7-15.8-4.5zM308.5 40.1c-4.9.5-10.6 1.3-12.6 2-2 .6-4.3.8-5 .4-.8-.5-1.1-.4-.6 0 .4.5-3.2 2.4-8 4.3l-8.7 3.5-5-1.6c-2.7-.9-5.2-1.5-5.4-1.3-.2.2 1.4 1 3.5 1.6 7.2 2.4 18.8 8.8 25.8 14.3 7.8 6.1 13.8 12.7 20.9 23.2 2.6 3.8 4.9 7.1 5 7.2.1.2.2-.5.2-1.5-.1-.9.4-6.2 1.1-11.7 4.1-33.8 4.2-37.8 1.1-39.9-1.2-.9-2.5-1.5-2.8-1.5-.3.1-4.5.5-9.5 1z"/><path d="M185.5 98.7c-.4 1.6-1.1 7.3-1.5 12.8-.4 5.5-1.5 12.5-2.4 15.5-6.2 20.2-8.9 36.5-8.8 54 0 22 3.3 31.6 14 41.1 5.8 5.1 10.1 7.3 18.8 9.7 3.8 1.1 9.6 3.1 12.9 4.5l6 2.6-4.7.1c-2.5 0-8.2.7-12.5 1.5-32.2 6.3-47.2 5.9-54.4-1.4l-3.6-3.6-.8-14.5c-.7-13.6-2.1-26.2-2.4-21.4-.1 2.9-2 3.4-6.5 1.9-8.7-3-15.3-13.2-16.3-25.4-1.2-14.2 7.3-22.7 19.4-19.5 1.5.4 2.3 1.5 2.6 3.8.2 1.9.4 1 .5-2.4.2-5.4 2.6-30.2 3.8-39 .4-2.5.4-4.3.1-4-.7.6-3.3 20.8-4.2 32.7l-.7 8.2-4.8-.6c-6.3-.7-9.4.1-12.5 3.5-6.3 6.8-7.1 18.6-2 30 3.2 7 9.4 12.7 16.2 14.5 4.9 1.3 4.9 1.1 5.9 20.2.6 11.9 1.7 15.8 5.1 17.8.7.4 1.3 1.6 1.3 2.6 0 6.1 7.5 28.4 11.5 34.4 1.4 2 2.3 3.7 2 3.7-1.2 0-6.1-3.5-9.8-6.9-5.1-4.7-7.2-9.1-8.6-17.7-1.4-8.2-3.9-17.7-4-15.2-.1.9.6 4.8 1.3 8.5 5.2 24.5 3.6 47.3-4.1 60.4-1.9 3.2-5.3 2.9-4.7-.4.4-2.1.4-2.1-.5-.2-1.4 2.9-1.3 3.5.4 3.5 1.8 0 2 2.6.2 3.7-.7.4-2.1 1.9-3.1 3.3l-1.8 2.5.6-3c.4-1.9-1.3.4-4.7 6.1-9.8 16.5-14.8 22.8-24.5 30.6-1.1.9-2.3 1.4-2.6 1.1-.3-.4-.6-.1-.6.6s-.4.9-1 .6c-.5-.3-1.8-.1-2.7.5-1.7 1.1-1.7 1.1 0 .6.9-.3 1.7 0 1.7.5 0 .7-1.1.9-2.5.7-1.3-.3-2.3-.1-2.2.4.1.5-.9 1.5-2.3 2.3-3.2 1.8-17.1 7-23.5 8.8l-5 1.3 10.5.7c19.7 1.2 32.5 1.6 29.5.8l-3-.7 3.2-.8c1.8-.4 4.8-1.8 6.8-3.2 2.6-1.7 4.1-2.2 5.3-1.5.9.4 3.9 1.2 6.6 1.6 6.9 1 7.9 1.4 6.5 3.1-.8 1-4.1 1.5-11.8 1.6l-10.6.2 8.8.3c4.8.2 8.7.8 8.7 1.4 0 1-10.3 7.9-11.8 7.9-.4 0-1.7.7-2.8 1.6-1.9 1.5-1.9 1.5.1.6 1.1-.5 7.2-1.2 13.5-1.5 22.7-1.2 60.6-5.6 80-9.3 4.7-.8 11-1.7 14-1.9l5.5-.4-7.5 1.9c-4.1 1.1-10.6 2.4-14.5 3-3.8.5-9.9 1.4-13.5 2-8.9 1.4-30.6 3.8-47.5 5.4-12.4 1.2-14.5 1.6-18 4-5.5 3.8-5.6 3.9-.5 3.2 2.5-.3 10.4-1 17.5-1.6 20.7-1.7 75.3-9.8 81.2-12.1 1.4-.5 2.6-.9 2.8-.9.1 0 .5 3.1.7 7 .6 11.3 4.7 13.2 9.3 4.4 2-3.8 2.2-3.9 7.2-3.9 3.7 0 5.9-.6 8-2.2 2.6-1.9 4.8-2.2 19.9-2.8 15.4-.6 17.3-.9 21.2-3.2 3.6-2 4.7-2.2 7.8-1.4 1.9.5 4.2.7 4.9.5.8-.3 2.6.6 4 2 1.6 1.6 2.5 2 2.5 1.1 0-1.9 3.6-8.2 6.8-12 5.6-6.7 11.6-9.6 24.2-11.6 7.1-1.2 7.3-1.3 3.7-1.9-4.9-.9-15.8 2.6-22.4 7.1-2.6 1.9-5 3.3-5.3 3.1-.3-.1-2.1.3-4 .8-7.5 2.1-8 1.8-8-5.5 0-7.2 1.1-9.1 6.8-11.6 3.4-1.5 4.2-2.9 1.6-2.9-1.9 0-14.4-6.9-14.4-7.9 0-.4 1.2-1.4 2.8-2.1 1.5-.7 2.2-1.5 1.4-1.7-2-.7-.3-2.3 2.4-2.3 1.4 0 2.2.4 1.9 1-.3.6-.1 1 .4 1 .6 0 1.1-.7 1.1-1.5 0-1-1-1.5-2.9-1.5-1.6 0-3.1-.5-3.3-1.2-.3-.7-1.4-.9-3.1-.4-2.8.7-3.8 2.6-1.3 2.6.8 0 1.7.7 2 1.6.8 2.1.8 2.1-1.3 2.7-1.4.3-1.8.1-1.4-1 .5-1.3-.1-1.5-3-1.1-2.1.2-3.7.2-3.7 0 0-.1 1-2.1 2.3-4.2 1.5-2.7 3.6-4.6 6.7-5.9 4.6-2.1 4.2-2.9-.4-1.1-3.2 1.2-3.4-.2-.3-3.1l2.2-2.1-2.2 1.1c-2.3 1.1-2.3 1.1-2.3-4.4 0-5.3 1.1-7 2.7-4.1.7 1.1 1 1.2 2 .1 1-1 .7-1.4-1.5-2-1.4-.3-3.2-1.5-4-2.6-.7-1-3.3-3-5.7-4.5-4.2-2.4-4.5-2.9-4.5-6.7 0-2.3-.6-4.9-1.3-5.8-2.2-2.9-8.1-5.9-11.7-5.9-5.9 0-11.2-4.7-15.8-14-2.3-4.7-2.7-6.7-2.7-14 0-7.6.4-9.1 3.3-14.8 1.8-3.4 3-6.7 2.7-7.3-.4-.5-.2-.8.4-.7.6.2 2.7-1.3 4.8-3.3 6.7-6.3 9.8-7.9 14.7-7.9 4.1 0 5.4-.6 11-5.3 3.5-2.8 10.3-7.2 15.1-9.5 6.6-3.3 8.4-4.7 7.6-5.5-.9-.9-1.4-.9-1.9-.1-.4.6-2.6 2.1-4.9 3.3L301 207v-3.3c0-1.8.9-5 2-7.2 1.1-2.1 1.8-4.1 1.5-4.3-.4-.4 1.2-2.1 5.9-6.2l2.9-2.5-.7 3.5c-.4 2.3-.3 3 .3 2 .5-.8.9-3.1.9-5.2v-3.7l-4.3 4.3c-4.3 4.4-11.6 9.6-13.5 9.6-.6 0 0-1.7 1.3-3.8 3.8-6.1 7.5-16.1 8.3-22.2.3-3 .1-2.8-1.4 1.6-1 2.7-2.9 6.6-4.2 8.5-2.6 3.6-10.2 11-10.8 10.4-.7-.7 3-11.4 4.3-12.5 3.4-2.8 9.5-16.1 11.4-24.8 1.4-6.4.3-4.5-2.9 5.1-3.4 9.9-8.5 18.9-13.5 23.7l-3.7 3.5 1.6-4c3.8-10 6.3-30.5 6.5-53.3 0-9.6-1.5-6.5-2.2 4.5-.7 9.9-2.4 18.4-5.1 24.5-1.4 3.2-1.4 3-1.5-6.2-.1-10.4-2.3-26.9-4.2-31.5-1.2-3-1.2-2.9-2.5 3.5-2.7 13.9-8.3 26.8-13.8 32l-2.7 2.4 2.6-5.6c1.4-3.1 2.8-6.5 3-7.5.2-1 .8-3.7 1.3-6 1.4-6.1.3-6.1-3.2.2-3.9 6.9-11.7 15.7-20.9 23.7l-7.2 6.1-.7-3.4c-1.6-7.6-3-23.2-3.3-37.3-.2-8.1-.6-15-.8-15.2-.5-.5-5.7 22.5-5.8 25.6 0 1.4-.4 3.4-.8 4.5-.7 1.7-.9 1.5-1.6-1.5-.4-1.9-1.1-7.3-1.5-12l-.7-8.5-.2 6.8-.1 6.8-5.2-.7c-2.9-.4-5.5-.8-5.7-1-.6-.5 6.6-14.3 9-17.4l1.9-2.5v3.4c0 5.3.7 3.3 1.5-4.4l.7-7-3 5.5c-1.6 3-4.7 8.6-6.9 12.5-5.8 10.4-8.9 19.8-9.5 28.3l-.2 3.3-1.8-2.3c-2.3-3-6.8-14.2-6.8-17.1 0-1.2-.5-2.9-1-3.7-.7-1.1-1 0-1 3.7 0 2.8-.2 5.7-.5 6.5-.3.7.2 2.2 1 3.3 1.6 1.9 1.6 1.8 1.1-1.5-.5-3.1-.1-2.7 2.5 2.6 1.7 3.3 4.1 7.4 5.4 9l2.4 2.9.1-6c.1-3.3.9-8.5 1.8-11.5 1.9-6.1 3.7-7 10.3-5.3 3.8 1 4.2 1.7 6.5 9.8l1.7 6 1.3-9c.7-5 2-11.9 2.8-15.5l1.4-6.5.1 6.5c.3 18.3 3.5 43 5.4 43 2.7 0 21.7-18 26.3-24.9 1.5-2.3 2.9-3.9 3.1-3.7.8.8-2.5 9.7-5.6 15.3-1.6 2.9-2.4 5.3-1.8 5.3 1.9 0 10.3-9.5 12.2-13.7 1.5-3.4 2.4-4.2 5.4-4.7 7.8-1.3 7.4-1.9 6.9 10.8-.2 6.6 0 11.3.5 10.9 1.3-.8 4.7-9.1 6.2-15.3l1.3-5.5.1 4.4c.1 5.7-1.9 21.5-2.9 23.2-.7 1-1.1 1-2.5-.1-2.5-2.1-26.7-.7-30 1.7-2.7 2-4.3 5.5-2.7 6.1.7.2.8 2.9.5 7.5-.4 5.3-.1 8.2 1 11 3.3 7.7 11.1 6.7 15.6-2.1 1-1.8.9-2.2-.4-2.2-.8 0-1.5.6-1.5 1.4 0 2.1-5 5.7-7.3 5.4-2.8-.4-6.1-5.2-5.3-7.5.7-1.7.9-1.7 2.6.4 2.1 2.6 4.8 3 5.6.8.4-.8 1.1-1.2 1.7-.8.6.4.8 0 .4-1-.8-2.1 1.8-4.7 4.8-4.7 2.3 0 3.5-2.2 3.5-6.8 0-2.5-.3-2.4 6.8-2.6 5.8-.3 6.1.2 3.7 6.1-2 4.7-1.2 5.3 2.4 1.8l3-2.8-2.9 9.3c-1.6 5.3-3.2 13-3.6 18-.6 8.4-.8 8.9-3.2 9.5-2.8.7-10.3 5.5-14.3 9.2-5 4.6-30.4 9.1-43.1 7.7l-5.8-.7V221l-4.2-.1c-2.4 0-9.6-.4-16.1-.8-12.9-.9-12.3-.6-17.4-9-2.7-4.5-5.2-14.8-5.2-21.1 0-2.9.2-3.1.9-1.4.4 1.1 2.2 3.3 4 4.7 5.6 4.8 15.4 2.9 18.9-3.6.8-1.5 1.2-3 .8-3.3-.8-.8-3.9 1.1-3.6 2.2.4 1.3-6 5.4-8.5 5.4-2.7 0-8.9-3.7-8.1-4.9.3-.5 0-1.1-.6-1.3-.5-.2-.7-1.1-.4-2 .7-1.8 4.1-1.3 4.9.8.7 1.8 6.1 1.8 7.9-.1.8-.8 1.7-1.1 2.1-.8.3.4.6-.6.6-2 0-2.9 3.1-5.2 6.1-4.4 1.5.4 1.9-.3 2.5-4l.7-4.5 6.1.7c3.3.3 6.9.9 8 1.2 1.4.4 1.6.2 1-.8-1.5-2.5-1.4-4.8.4-5.2 1.4-.4 1.4-.5-.3-.6-1.5-.1-1.7-.3-.6-1 1.9-1.2-13.9-3.9-26.9-4.7-16.2-.8-15 0-13.3-9.1 2.3-12.4 7.5-30.7 8.3-29.2.4.8 1.1 2.9 1.5 4.8.9 4.2 4.5 12.4 5.2 11.8.2-.3-.2-1.8-1-3.4-3.6-7.1-5-15.9-4.5-27.8.3-6.3.4-11.5.3-11.5-.2 0-.6 1.2-1 2.7zm96.9 37.5c.5 2.5.3 2.8-2.2 2.8-1.5 0-3.7.3-4.9.6l-2.1.6 2.4-7.6c1.3-4.2 2.4-8.5 2.4-9.5s.3-2.1.8-2.5c.4-.4 1.2 2.3 1.9 6.1.7 3.7 1.5 8 1.7 9.5zm-77.1 87.4l8.7.6-.1 4.6-.2 4.7-.6-4-.6-4-10.8-.6c-6.2-.4-11.3-1.1-12-1.8-.9-.9-.3-1.1 2.8-.7 2.2.3 7.9.8 12.8 1.2zM192 248.2c.1 8.8 5.7 23.5 9.9 25.7.9.5 3.2 1.2 5.1 1.6 1.9.4 6 2 9.1 3.5l5.5 2.7 10.5-4.3c5.7-2.3 12.2-4.5 14.4-4.8 4.6-.7 4.6-.7-10.5 5.4-13.9 5.5-14.7 5.7-20.3 2.6-2.6-1.3-7.2-3-10.2-3.7-5-1.1-5.8-1.7-8.5-6-4.4-7.2-8.8-25.9-6-25.9.5 0 1 1.5 1 3.2zm52 1.4c3.7 2 4.8 3.1 4.8 5.1 0 1.6-.7 2.7-1.8 3-.9.2-3 2.7-4.5 5.4-3.3 5.5-3.7 5.6-13 3.3-5.4-1.4-6.8-2.2-8.5-4.9-1.1-1.8-2-3.9-2-4.7 0-1.6 7.2-4.3 14-5.3 4.5-.7 1.7.6-6.2 2.9-3.2 1-5.8 2.1-5.8 2.7 0 1.2-.1 1.2 8-1 3.9-1.1 7-1.6 7-1.1 0 .4-2.9 1.6-6.5 2.5-3.6 1-6.5 2.2-6.5 2.6 0 .5.7.6 1.5.3 2.8-1.1 6.4.5 7.1 3.1.3 1.4 1.1 2.5 1.8 2.5.6 0 2.1.3 3.3.6 1.8.5 2.7-.3 5.2-4.2 2.8-4.6 2.9-5 1.3-6.9-1.7-2-1.7-2 .4-.3 2.7 2.4 4.3 2.3 4.1-.2-.1-1.3-1.1-2.3-2.7-2.7-3.2-.7-7-3.1-7-4.3 0-1.5.7-1.3 6 1.6zm-55.2 27.7c1.4 1.5 1.8 1.4 4.6-.5l3.1-2.1-2.9 3.1-2.9 3.1-2.6-1.9c-1.4-1.1-4-2.2-5.7-2.6-2.7-.5-3.8 0-7.4 3.2-2.9 2.6-3.9 3.2-3.2 1.7 2.4-4.4 6.3-6.5 11.1-6 2.3.3 5 1.2 5.9 2zm51.3 15.3c-2.2 7.1-4.5 15-5 17.5-.6 2.5-1.3 5.3-1.7 6.2-.4 1-.1 1.7.6 1.7.6 0 2.3.9 3.7 2 1.4 1.1 2.2 2 1.8 2-.5 0-1.6-.7-2.6-1.6-3.4-3.1-4.6-1.1-6.9 11.5-1.3 6.7-2.1 12.4-1.8 12.7.3.2 2.1-.4 3.9-1.5 4.6-2.6 11.6-4.4 13.4-3.4 1 .6.1.9-2.6 1-2.3.1-6.5 1.4-9.4 2.9l-5.3 2.6-.7 8c-.3 4.4-1.1 9-1.6 10.2-.7 1.7-.8 1.6-.4-.9.3-1.7.9-8.4 1.5-15 .9-12.1 2.1-19.1 6-34.6 2.9-11.3 10.2-35 10.7-34.5.2.2-1.4 6.2-3.6 13.2zm-51.8-6.5c1.7 2 1.7 2.4 0 9.2-2 7.8-3.5 10-7.7 11.1-1.5.4-3.9 1.8-5.2 3.1-1.4 1.4-2.8 2.4-3.2 2.3-.4-.1-2 .2-3.5.7-3.7 1-7.1 7.5-6.4 12.2.6 3.3.4 3.5-3.9 5.4-10.5 4.4-16 3.5-14.3-2.4.5-1.8.9-4.9.9-6.9 0-2.1.5-3.8 1-3.8.6 0 1-.5 1-1.1 0-.6 1.5-2.5 3.3-4.1 2.4-2.2 3.9-2.8 6.2-2.4 2.3.3 5.3-.9 12.5-4.9l9.5-5.2-.3-5.1c-.3-4.5-.1-5.4 2.4-7.7 3.3-3 5.4-3.2 7.7-.4zm84.2-.5c4 .5 5.9 1.5 8.2 4.5 3.1 3.9-3.3 11.2-7.1 8-.7-.6-1.6-.8-2-.4-.9 1-3.4-2.8-4.1-6.3-.4-2.2-1.3-3.4-2.8-3.8-1.2-.3-3.1-1.2-4.2-2-2.1-1.6-1.1-1.6 12 0zM171 290c0 4.8-.1 5-4 7-2.3 1.1-5.2 2.5-6.6 3-4.3 1.7-1.7-.6 3.6-3.1 4.5-2.1 5-2.7 5-5.6 0-3.1.8-6.3 1.6-6.3.2 0 .4 2.2.4 5zm-20.3 2.2c-.3.8-.6.5-.6-.6-.1-1.1.2-1.7.5-1.3.3.3.4 1.2.1 1.9zm4.5 7.8c1.3.5 1.6.9.8.9-2.3.1-5-2.4-4.9-4.5 0-1.6.2-1.6.9.4.5 1.2 2 2.7 3.2 3.2zm36.2 9.7c-1.4 3.1-3.4 6.8-4.5 8.1-1 1.4-1.9 3-1.9 3.8 0 1.4-3.2 7.4-4 7.4-.5 0-4.6-13-5.2-16.4-.2-1.6 1.1-2.7 6.2-5.2 3.6-1.8 7.7-3.3 9.2-3.3l2.7-.1-2.5 5.7zm92.4-1.3c.3 1.2-.1 1.7-1 1.4-.7-.3-1.5-1.3-1.6-2.2-.3-1.2.1-1.7 1-1.4.7.3 1.5 1.3 1.6 2.2zm-4.4 1.6c-.6.6-1 .3-1-1s.4-1.6 1-1c.7.7.7 1.3 0 2zm-105.5 4.9c1.8 1.8 4.1 7.9 4.1 10.9 0 1.6-2.9 6.3-4.9 7.9-4.3 3.6-9.1-1.7-9.1-10 0-4 .5-5.4 2.9-7.8 3.5-3.4 4.4-3.6 7-1zm-31.6 3.5c1.9 4.8-7.8 18.6-10.3 14.6-1.2-2 1-8.5 4.2-12.4 3.1-3.8 5.2-4.5 6.1-2.2zm16.7 14.4c-7.7 3.6-13.7 4-17.3 1.2-3.4-2.7-2.9-3.8.7-1.4 3.1 1.9 11.9 1.4 16.5-1.1 1.4-.8 3.3-1.4 4.1-1.4.8 0-1 1.2-4 2.7zm10.5 4.1c1.1.5 2.8 1.2 3.7 1.5 1.6.5 1.6.8.2 4.8-.8 2.4-1.8 8.6-2.1 13.8-.7 12.4-1.8 14.4-8.1 13.7-10.1-1.1-20.9-4.2-22.9-6.7-.7-.8-1.3-3.1-1.3-5s-.8-6.4-1.8-10c-3.3-12.4-3.3-12.4 15.5-12.8 8.1-.1 15.7.2 16.8.7zm123.5.1c-2 1.3-3.3 1.3-2.5 0 .3-.6 1.4-1 2.3-1 1.5 0 1.5.2.2 1zm-158.8 8.2c.6 2.4 1.2 7.5 1.5 11.4l.4 7.1-6.3 1.2c-10.4 1.8-13.4 2.2-12.2 1.4 1.9-1.4 10-14.6 12.5-20.5 1.3-3.1 2.6-5.4 2.8-5.2.2.2.8 2.3 1.3 4.6zm157.3 1.9c5.2 2.6 8 5.8 5.8 6.6-.7.3-1.3 1.3-1.3 2.4 0 2.4-2.7 2.5-3.3.1-.3-1.1-.5-.7-.6 1-.1 3.7-3.1 4.4-8.1 1.8-2.3-1.2-9.2-4.1-15.3-6.5l-11.2-4.4 6-.1c4 0 7.2-.6 9.5-1.9 4.7-2.6 12.2-2.2 18.5 1zm-38.8 5.1c-2.1 2-4.3 5.7-5.7 9.6-1.3 3.4-2.5 6.1-2.7 5.9-1-1 4.9-14.4 7.2-16.5 4-3.4 5.1-2.6 1.2 1zm8.6-1.4c.3.4-1.3 1.5-3.6 2.5l-4 1.7 2.3-2.5c2.3-2.5 4.5-3.2 5.3-1.7zm2.2 3.9c-2.2.9-5.9 2.9-8.2 4.4-2.6 1.7-4 2.2-3.6 1.3.7-1.8 11.1-7.3 13.8-7.3 1.2 0 .4.7-2 1.6zm22.5 6.9c0 .3-1.7.4-3.7.3-2.1-.1-5 .3-6.5.9-1.6.7-2.8.9-2.8.7 0-1.2 6.6-3 9.6-2.7 1.9.2 3.4.6 3.4.8zm-128.1 11.8c-.8.7-27.1 4.8-27.6 4.3-.7-.8 3.7-3 7.7-3.8 3.6-.7 20.7-1.2 19.9-.5z"/><path d="M226.4 263.5c2.4 1.8 3.9 2 3.4.2-.3-.6-1.5-1.3-2.9-1.5-2.3-.2-2.3-.2-.5 1.3zM167.6 319.2c-2.2 3.1-2 8 .4 10.6 2.7 2.8 3.6 2.8 5.6-.3 1.2-1.8 1.4-3.5.9-6.2-1.2-6.5-4.1-8.2-6.9-4.1zm5.4 5.9c0 2.2-.5 3.9-1 3.9-1.7 0-3.3-4.7-2.6-7.5 1-4 3.6-1.3 3.6 3.6zM136.7 323.2c-2.7 3.5-3.6 7.8-1.6 7.8 1.2 0 5.2-8.6 4.7-10.2-.3-.7-1.6.4-3.1 2.4zM322 101.5c0 .5.5 1.7 1 2.5s1 1 1 .5c0-.6-.5-1.7-1-2.5s-1-1.1-1-.5zM150.2 111.5c0 1.6.2 2.2.5 1.2.2-.9.2-2.3 0-3-.3-.6-.5.1-.5 1.8zM322.2 160.7c-.7 3.2-2.4 8-3.7 10.8-2.9 5.8-2.9 6.1-1.2 4.7.6-.6 2.1-3.3 3.1-6 1.3-3.3 2.4-4.8 3.3-4.5.9.4 1.3-.5 1.2-3.3-.1-7.2-1.4-8-2.7-1.7zM209.3 158.7c.9.2 2.3.2 3 0 .6-.3-.1-.5-1.8-.5-1.6 0-2.2.2-1.2.5zM131.1 165.7c-2.5 3-3.5 6.4-2.8 9 .3 1.2.5.8.6-1 .1-3.9 2.8-8.6 5.4-9.7 1.6-.6 1.7-.9.5-.9-.9-.1-2.6 1.1-3.7 2.6zM139.8 163.7c.7.3 1.6.2 1.9-.1.4-.3-.2-.6-1.3-.5-1.1 0-1.4.3-.6.6zM145 178.6c0 14.1-.1 14.6-2 14.1-1.1-.3-1.8-.2-1.5.3.3.4 1.4 1 2.5 1.3 1.9.5 2 .1 2-14.9 0-8.5-.2-15.4-.5-15.4s-.5 6.6-.5 14.6zM256 165.1c-1.1.7-.4.8 2.5.3 5-.8 5.8-1.4 1.9-1.4-1.6 0-3.6.5-4.4 1.1zM323 169.1c0 .5.5.7 1 .4.6-.3 1-.8 1-1.1 0-.2-.4-.4-1-.4-.5 0-1 .5-1 1.1zM323.1 172.7c0 1.2-.4 3-.7 4-.5 1.4-.4 1.5.5.7.7-.6 1.1-2.4.8-4-.3-2.1-.4-2.3-.6-.7z"/><path d="M137.7 173.8c-1 1-1.7 2.5-1.7 3.3 0 .8.6.3 1.3-1.1.7-1.5 2.5-2.8 4.2-3.1 2.9-.6 2.9-.7.4-.8-1.4 0-3.3.7-4.2 1.7zM135.9 190.9c1.3 1.2 2.8 2.1 3.4 2.1 1.2 0 1.1 0-2.8-2.4l-3-1.7 2.4 2zM306.3 211.9c-7.6 5.4-15.3 13.6-15.3 16.3 0 2.1 2.3 2.3 6.8.7 1.7-.6 6.1-1.4 9.9-1.9l6.8-.9-8.2.2c-9.7.2-10.3-.6-5-6.8 3.3-3.9 11.4-10.5 12.8-10.5.5 0 1 4.2 1.2 9.2l.3 9.3.2-10.3c.2-8-.1-10.2-1.1-10.2-.8 0-4.5 2.2-8.4 4.9zM320.2 224.1c0 4 .3 4.8 2.9 6.3 4.2 2.5 8.3 7.2 11 12.5 3.2 6.3 4 24 1.4 29.1-1.4 2.7-1.6 4.8-1.1 10.7.4 4.1 1 8.3 1.4 9.4.7 1.8 1 1.6 3-1.9 1.9-3.5 6.4-16.2 5.7-16.2-.3 0 4.3-4.9 11.1-12.1 1.9-1.9 3.4-4 3.4-4.6 0-.6.5-1.3 1.1-1.5 3.6-1.2-4.2-6.8-12.4-8.9-4-1-5.3-1.9-8-5.8-3.9-5.8-9.1-10.6-13.9-13.2-2.6-1.3-4-2.9-4.6-5.2-.9-3.1-.9-3.1-1 1.4zm32.7 35.6c-1.4 1.6-3.5 3.9-4.7 5.2l-2.2 2.5v-4.1c0-3.6.3-4.1 3.3-5.1 5.5-1.7 6.3-1.4 3.6 1.5zM233 224.9c1.6 3.1 3.2 3.6 1.8.7-.6-1.4-1.5-2.6-2-2.6s-.4.9.2 1.9zM225.5 226c-1.3.6-1.5.9-.5.9.8 0 2.2-.4 3-.9 1.8-1.2.2-1.2-2.5 0zM160 228.7c0 3.1 2.5 8.6 4.7 10.3 2.7 2.1 10.1 2.6 16.8 1.1 2.8-.6 2.5-.8-3.4-2.5-6.5-1.8-16.1-7-16.1-8.7 0-.5-.4-.9-1-.9-.5 0-1 .3-1 .7zM65.5 247c-1 1.1-1.3 2-.7 2 .6 0 1.3.8 1.5 1.7.4 1.7.5 1.7.6 0 0-1 .5-1.6 1-1.3.4.3.6-.6.3-1.9-.5-3-.4-3-2.7-.5zM309 252.2c3.2 3.3 13 5.1 13 2.4 0-1-1.6-1.5-5.2-1.8-2.9-.2-6.2-.8-7.3-1.3-1.8-.7-1.8-.6-.5.7zM97 258.9c0 .6.4 1.3 1 1.6.6.3.7-.1.4-.9-.7-1.8-1.4-2.1-1.4-.7zM278.4 263.3c1 .7 3.4 2.2 5.3 3.5 2 1.3 3.8 2 4.2 1.7.9-1-3.8-4.1-7.8-5.3-2.9-.8-3.2-.8-1.7.1zM311.7 262.7c-1 .9-.9 2.3.2 2.3.5 0 1.1-.7 1.5-1.5.5-1.5-.5-2-1.7-.8zM67.1 265.6c0 1.1.3 1.4.6.6.3-.7.2-1.6-.1-1.9-.3-.4-.6.2-.5 1.3zM276.4 273c4.6 3 6.6 3.4 5.1 1-.7-1.1-2.8-2.1-7.5-3.5-1.5-.4-.5.6 2.4 2.5zM92.3 275.5c0 2.2.2 3 .4 1.7.2-1.2.2-3 0-4-.3-.9-.5.1-.4 2.3zM330 281.5c-.7.9-1.1 1.8-.8 2 .3.3 1.1-.1 1.8-1s1.1-1.8.8-2c-.3-.3-1.1.1-1.8 1zM314.6 282.9c-.7 1 2.2 3.7 3 2.8.9-.8-.3-3.7-1.5-3.7-.5 0-1.2.4-1.5.9zM91.1 285.6c0 1.1.3 1.4.6.6.3-.7.2-1.6-.1-1.9-.3-.4-.6.2-.5 1.3zM304.6 286.7c-.9 2.1-.7 3 .2 1.5.9-1.3 4.2-.6 4.2.9 0 .4.7.6 1.5.3.8-.4 1.5-.1 1.5.5s-.5 1.1-1.1 1.1c-.5 0-.7.4-.4 1 .7 1.2-4 2.4-5.6 1.4-.8-.4-.9-.3-.5.4 1 1.7 5.1 1.5 6.6-.3.7-.8 2.4-1.6 3.9-1.6 2.3-.2 2.4-.2.4-.6-1.5-.3-2.3-1.2-2.3-2.4 0-1.1-.5-1.7-1-1.4-.6.4-2.3 0-3.9-.8-2.6-1.3-3-1.3-3.5 0zM120 290c0 1.3.5 1.8 1.5 1.3.9-.3 2.5.3 3.5 1.2 1.1 1 2 1.5 2 1.1 0-.9-5.2-5.5-6.2-5.6-.5 0-.8.9-.8 2zM78.1 291c1.4 3.1 1.9 3.6 1.9 2.4 0-.6-.7-1.9-1.6-3-1.4-1.8-1.4-1.8-.3.6zM327 293.1c0 4.2-5.5 11.9-8.4 11.9-.9 0-1.6.8-1.6 2 0 1.3.5 1.8 1.5 1.4.8-.4 1.5-1 1.5-1.6 0-.5.5-.6 1-.3.6.3 1 .1 1-.4 0-.6.6-1.1 1.4-1.1.7 0 2.8-1.5 4.6-3.3 1.8-1.7 2.9-2.5 2.5-1.7-.5.8.4.4 1.8-.9 1.5-1.4 2.7-2.7 2.7-2.9 0-.3-.3-.2-.7.2-.4.3-2.2-.8-4-2.6-3.3-3.2-3.3-3.2-3.3-.7zM128 295.3c0 .2 1.5 1.6 3.3 3.3l3.2 2.9-2.9-3.3c-2.8-3-3.6-3.7-3.6-2.9zM134 302.4c0 .2.8 1 1.8 1.7 1.5 1.3 1.6 1.2.3-.4s-2.1-2.1-2.1-1.3zM82.1 305.6c0 1.1.3 1.4.6.6.3-.7.2-1.6-.1-1.9-.3-.4-.6.2-.5 1.3zM83.4 310.5c-.4.8-1.1 1.2-1.7.8-.5-.3-.7-.1-.3.5.3.5.1 1.3-.4 1.5-.6.3-.5.4.1.3 1.3-.2 4.6-4.6 3.5-4.6-.4 0-.9.7-1.2 1.5zM311.6 323.5c1.1 2.8-.5 6.5-2.9 6.6-1.9.1-2 .2-.3.6 3.3.9 6.5-6.4 3.6-8.2-.6-.3-.7.1-.4 1zM362.1 360.9l5.1 5-.7 7.8c-.4 4.3-1.2 9.4-1.9 11.4-1.2 3.3-1.1 3.5.7 3.4 1.1-.1 3.1-1.4 4.4-2.9 4.2-4.9 2.9-17.7-2.5-23.8-.8-1-1.9-1.5-2.3-1.2-.5.3-.9.1-.9-.5 0-.9-5-4.1-6.4-4.1-.3 0 1.7 2.2 4.5 4.9zM87 364c0 .5.7.7 1.5.4.8-.4 1.5-.8 1.5-1 0-.2-.7-.4-1.5-.4s-1.5.4-1.5 1zM82.5 365c-1.3.6-1.5.9-.5.9.8 0 2.2-.4 3-.9 1.8-1.2.2-1.2-2.5 0zM107.4 391.6c-1.2.8-3.5 1.6-5.2 1.7-1.6.1-2.8.6-2.4 1.1.3.5-.2.6-1.2.3-1.1-.5-1.5-.3-1 .4 1 1.7 13.1.5 15.3-1.5 1-.9 2.3-1.6 2.9-1.6.6 0 1.4-.5 1.7-1 1-1.6-7.7-1.1-10.1.6z"/></svg>